# xmcd CD database file
#
# Track frame offsets:
#	150
#	15236
#	37043
#	57627
#	69323
#	86127
#	102906
#	118536
#	132517
#	149495
#	165461
#	181516
#	199514
#
# Disc length: 2885 seconds
#
# Revision: 0
# Processed by: cddbd v1.5.2PL0 Copyright (c) Steve Scherf et al.
# Submitted via: CDex 1.51
#
DISCID=ae0b430d
DTITLE=get up and dance wk 55 - get up and dance wkshop 55
DYEAR=1900
DGENRE=Country
TTITLE0=Sweet Memories
TTITLE1=Cooler Online
TTITLE2=La vida Es Un Carnaval
TTITLE3=Mean Girls
TTITLE4=Stil Country
TTITLE5=Country Girl
TTITLE6=Crystal Clear
TTITLE7=Whole New World
TTITLE8=Madhouse to Thje Max
TTITLE9=Sing Me Back Home
TTITLE10=Mentiras
TTITLE11=The Cowboy Beat
TTITLE12=The Maverick Waltz
EXTD=
EXTT0=
EXTT1=
EXTT2=
EXTT3=
EXTT4=
EXTT5=
EXTT6=
EXTT7=
EXTT8=
EXTT9=
EXTT10=
EXTT11=
EXTT12=
PLAYORDER=
